<?xml version="1.0" encoding="UTF-8" standalone="no"?>
<!-- Created with Inkscape (http://www.inkscape.org/) -->

<svg
   width="5.0859733mm"
   height="8.1277399mm"
   viewBox="0 0 5.0859733 8.1277398"
   version="1.1"
   id="svg5"
   xml:space="preserve"
   inkscape:version="1.2.2 (732a01da63, 2022-12-09)"
   sodipodi:docname="logo.svg"
   xmlns:inkscape="http://www.inkscape.org/namespaces/inkscape"
   xmlns:sodipodi="http://sodipodi.sourceforge.net/DTD/sodipodi-0.dtd"
   xmlns="http://www.w3.org/2000/svg"
   xmlns:svg="http://www.w3.org/2000/svg"><sodipodi:namedview
     id="namedview7"
     pagecolor="#ffffff"
     bordercolor="#000000"
     borderopacity="0.25"
     inkscape:showpageshadow="2"
     inkscape:pageopacity="0.0"
     inkscape:pagecheckerboard="0"
     inkscape:deskcolor="#d1d1d1"
     inkscape:document-units="mm"
     showgrid="false"
     inkscape:zoom="2.9540685"
     inkscape:cx="-38.760104"
     inkscape:cy="129.48244"
     inkscape:window-width="1387"
     inkscape:window-height="1032"
     inkscape:window-x="94"
     inkscape:window-y="260"
     inkscape:window-maximized="0"
     inkscape:current-layer="layer1" /><defs
     id="defs2"><linearGradient
       id="IconifyId1813088fe1fbc01fb466"
       x1="-2.0007203"
       x2="139.28905"
       y1="48.343502"
       y2="219.34656"
       gradientTransform="scale(1.0592958,0.94402338)"
       gradientUnits="userSpaceOnUse"><stop
         offset="0%"
         stop-color="#41D1FF"
         id="stop111" /><stop
         offset="100%"
         stop-color="#BD34FE"
         id="stop113" /></linearGradient><linearGradient
       id="IconifyId1813088fe1fbc01fb467"
       x1="188.00648"
       x2="199.00609"
       y1="3.5533929"
       y2="141.10861"
       gradientTransform="scale(0.74063538,1.3501921)"
       gradientUnits="userSpaceOnUse"><stop
         offset="0%"
         stop-color="#FFEA83"
         id="stop116" /><stop
         offset="8.333%"
         stop-color="#FFDD35"
         id="stop118" /><stop
         offset="100%"
         stop-color="#FFA800"
         id="stop120" /></linearGradient></defs><g
     inkscape:label="Camada 1"
     inkscape:groupmode="layer"
     id="layer1"
     transform="translate(-92.977284,-103.61275)"><path
       style="fill:#024aad;stroke:none;stroke-width:0.0158547"
       d="m 93.134533,103.63122 c -0.130738,0.0393 -0.154879,0.15967 -0.154924,0.28276 v 0.77883 3.37488 2.6123 0.66524 c 0,0.0951 -0.01703,0.20958 0.04109,0.29053 0.07751,0.10795 0.21551,0.0989 0.330721,0.0989 h 0.821099 2.571751 0.774634 c 0.123006,0 0.269391,0.0223 0.387303,-0.0203 0.147996,-0.0535 0.154922,-0.17888 0.154922,-0.32046 v -0.77882 -3.47225 -2.49872 -0.63279 c 0,-0.0962 0.01626,-0.20885 -0.04111,-0.29135 -0.08057,-0.11587 -0.209853,-0.0981 -0.330713,-0.0981 H 96.852712 94.296453 93.52183 c -0.120075,0 -0.271305,-0.0256 -0.387312,0.009 m 4.477319,1.41856 v 5.25703 h -4.182963 v -5.25703 h 4.182963 m -2.509778,0.94802 c -0.364492,0.0554 -0.199155,0.57069 -0.166044,0.83677 0.03967,0.31893 0.07554,0.63837 0.115198,0.9573 0.01546,0.12424 0.0062,0.29262 0.09938,0.38576 0.11824,0.11819 0.46507,0.0921 0.617642,0.0632 0.14981,-0.0283 0.1858,-0.16511 0.200628,-0.30294 0.02968,-0.27606 0.06383,-0.55203 0.0981,-0.8275 0.02756,-0.22157 0.05055,-0.44389 0.07967,-0.66524 0.01372,-0.10457 0.0458,-0.22706 -0.008,-0.32442 -0.05473,-0.0991 -0.159959,-0.12454 -0.261975,-0.12926 -0.247369,-0.0114 -0.529639,-0.031 -0.774627,0.007 m 0.139451,2.45345 c -0.218074,0.0663 -0.154938,0.37549 -0.154938,0.55753 0,0.0878 -0.01177,0.18303 0.04346,0.25661 0.100543,0.13397 0.522588,0.12177 0.669207,0.0735 0.213907,-0.0704 0.154927,-0.37776 0.154927,-0.55729 0,-0.0836 0.0086,-0.17125 -0.04111,-0.24268 -0.103595,-0.14892 -0.514382,-0.1355 -0.671534,-0.0877 z"
       id="path181" /></g></svg>
